<mxfile host="app.diagrams.net" modified="2022-11-02T14:07:50.961Z" agent="5.0 (Windows)" etag="XJ6mFMxaJX13AP0XGgiJ" version="20.5.1" type="github">
  <diagram name="Page-1" id="74e2e168-ea6b-b213-b513-2b3c1d86103e">
    <mxGraphModel dx="708" dy="397" grid="1" gridSize="10" guides="1" tooltips="1" connect="1" arrows="1" fold="1" page="1" pageScale="1" pageWidth="1600" pageHeight="1200" background="none" math="0" shadow="0">
      <root>
        <mxCell id="0" />
        <mxCell id="1" parent="0" />
        <mxCell id="RQqygvgA-cGsSz0pc4jh-1" value="&lt;div&gt;Vehicle&lt;/div&gt;" style="rounded=0;whiteSpace=wrap;html=1;" vertex="1" parent="1">
          <mxGeometry x="350" y="150" width="70" height="30" as="geometry" />
        </mxCell>
        <mxCell id="RQqygvgA-cGsSz0pc4jh-5" value="&lt;div&gt;Driver&lt;/div&gt;" style="rounded=0;whiteSpace=wrap;html=1;" vertex="1" parent="1">
          <mxGeometry x="390" y="280" width="70" height="30" as="geometry" />
        </mxCell>
        <mxCell id="RQqygvgA-cGsSz0pc4jh-10" value="Bus Stop" style="rounded=0;whiteSpace=wrap;html=1;" vertex="1" parent="1">
          <mxGeometry x="500" y="40" width="70" height="30" as="geometry" />
        </mxCell>
        <mxCell id="RQqygvgA-cGsSz0pc4jh-11" value="&lt;div&gt;Line&lt;/div&gt;" style="rounded=0;whiteSpace=wrap;html=1;" vertex="1" parent="1">
          <mxGeometry x="530" y="140" width="70" height="30" as="geometry" />
        </mxCell>
        <mxCell id="RQqygvgA-cGsSz0pc4jh-12" value="&lt;div&gt;Itinerary&lt;/div&gt;" style="rounded=0;whiteSpace=wrap;html=1;" vertex="1" parent="1">
          <mxGeometry x="530" y="360" width="70" height="30" as="geometry" />
        </mxCell>
        <mxCell id="RQqygvgA-cGsSz0pc4jh-13" value="&lt;div&gt;Malfunction&lt;/div&gt;" style="rounded=0;whiteSpace=wrap;html=1;" vertex="1" parent="1">
          <mxGeometry x="220" y="220" width="70" height="30" as="geometry" />
        </mxCell>
        <mxCell id="RQqygvgA-cGsSz0pc4jh-14" value="&lt;div&gt;Ticket&lt;/div&gt;" style="rounded=0;whiteSpace=wrap;html=1;" vertex="1" parent="1">
          <mxGeometry x="260" y="140" width="70" height="30" as="geometry" />
        </mxCell>
        <mxCell id="RQqygvgA-cGsSz0pc4jh-15" value="&lt;div&gt;Start&lt;/div&gt;" style="rounded=0;whiteSpace=wrap;html=1;" vertex="1" parent="1">
          <mxGeometry x="680" y="150" width="70" height="30" as="geometry" />
        </mxCell>
        <mxCell id="RQqygvgA-cGsSz0pc4jh-16" value="Finish" style="rounded=0;whiteSpace=wrap;html=1;" vertex="1" parent="1">
          <mxGeometry x="680" y="90" width="70" height="30" as="geometry" />
        </mxCell>
        <mxCell id="RQqygvgA-cGsSz0pc4jh-19" value="" style="verticalLabelPosition=bottom;verticalAlign=top;html=1;shape=mxgraph.basic.frame;dx=10;rotation=45;" vertex="1" parent="1">
          <mxGeometry x="532.35" y="222.03" width="71.28" height="70.8" as="geometry" />
        </mxCell>
        <mxCell id="RQqygvgA-cGsSz0pc4jh-25" value="" style="endArrow=none;html=1;rounded=0;" edge="1" parent="1" source="RQqygvgA-cGsSz0pc4jh-16" target="RQqygvgA-cGsSz0pc4jh-11">
          <mxGeometry width="50" height="50" relative="1" as="geometry">
            <mxPoint x="440" y="240" as="sourcePoint" />
            <mxPoint x="490" y="190" as="targetPoint" />
          </mxGeometry>
        </mxCell>
        <mxCell id="RQqygvgA-cGsSz0pc4jh-26" value="" style="endArrow=none;html=1;rounded=0;" edge="1" parent="1" source="RQqygvgA-cGsSz0pc4jh-15" target="RQqygvgA-cGsSz0pc4jh-11">
          <mxGeometry width="50" height="50" relative="1" as="geometry">
            <mxPoint x="440" y="240" as="sourcePoint" />
            <mxPoint x="490" y="190" as="targetPoint" />
          </mxGeometry>
        </mxCell>
        <mxCell id="RQqygvgA-cGsSz0pc4jh-33" value="Instance of" style="text;html=1;align=center;verticalAlign=middle;resizable=0;points=[];autosize=1;strokeColor=none;fillColor=none;" vertex="1" parent="1">
          <mxGeometry x="523.63" y="242.43" width="80" height="30" as="geometry" />
        </mxCell>
      </root>
    </mxGraphModel>
  </diagram>
</mxfile>
